<?xml version="1.0" encoding="utf-8"?>
<!-- Generator: Adobe Illustrator 28.2.0, SVG Export Plug-In . SVG Version: 6.00 Build 0)  -->
<svg version="1.1" id="Layer_1" xmlns="http://www.w3.org/2000/svg" xmlns:xlink="http://www.w3.org/1999/xlink" x="0px" y="0px"
	 viewBox="0 0 400 400" style="enable-background:new 0 0 400 400;" xml:space="preserve">
<style type="text/css">
	.st0{fill:#FFFFFF;}
	.st1{fill:url(#SVGID_1_);}
	.st2{fill:url(#SVGID_00000099630740704303453310000004809395160905351309_);}
</style>
<g>
	<ellipse class="st0" cx="200" cy="200" rx="198.3" ry="198.3"/>
	<g>
		<linearGradient id="SVGID_1_" gradientUnits="userSpaceOnUse" x1="93.2526" y1="219.3774" x2="214.1639" y2="219.3774">
			<stop  offset="0" style="stop-color:#005D5C"/>
			<stop  offset="0.5" style="stop-color:#006D6D"/>
			<stop  offset="1" style="stop-color:#005D5C"/>
		</linearGradient>
		<path class="st1" d="M214.2,170.8c-0.6,8.9-4,16.4-12,21.1c-12.7,7.4-25.5,14.5-38.2,21.7c-4.7,2.6-8,6.2-8.8,11.6
			c-1,6.9,1.9,12.2,7.4,16.2c6.8,4.9,13.7,9.7,20.5,14.6c6.8,4.9,13.5,9.9,20.2,15.1c8.5,6.6,12.5,15.2,10,26.1
			c-1.5,6.7-5.6,11.9-11.5,15.3c-13.8,8-27.7,15.8-41.5,23.6c-0.1,0.1-0.2,0.1-0.3,0.1c-5.1,2.5-8.3,0.8-8.6-4.9
			c-0.4-6.4-3.2-11.1-8.3-14.8c-12.8-9.4-25.5-18.9-38.3-28.4c-5.2-3.9-9.1-8.8-10.7-15.3c-2.2-9.3,0.6-17.1,7.6-23.2
			c3.6-3.2,8-5.5,12.2-8c9.8-5.7,19.7-11.2,29.5-16.8c3-1.7,5.7-3.9,7.4-7c2.8-5,2.4-10-0.8-14.6c-1.4-2.1-3.3-3.9-5.3-5.4
			c-13.2-10-26.6-19.9-39.9-29.8c-5.8-4.3-9.9-9.7-11.1-17c-1.5-9.1,1.7-16.6,8.7-22.5c2.5-2.1,5.4-3.7,8.2-5.3
			c11.9-6.8,23.9-13.5,35.8-20.2c1.2-0.7,2.6-1.2,4-1.4c2.7-0.4,4.5,0.8,5.2,3.5c0.2,0.7,0.3,1.5,0.3,2.3c0.1,6.2,3,10.8,7.8,14.3
			c13.3,9.7,26.5,19.5,39.8,29.2C210.3,155.7,213.5,162.6,214.2,170.8z"/>
		
			<linearGradient id="SVGID_00000044155952184312286900000011486329841434819234_" gradientUnits="userSpaceOnUse" x1="185.9965" y1="181.2782" x2="306.7327" y2="181.2782">
			<stop  offset="0" style="stop-color:#005D5C"/>
			<stop  offset="0.5" style="stop-color:#006D6D"/>
			<stop  offset="1" style="stop-color:#005D5C"/>
		</linearGradient>
		<path style="fill:url(#SVGID_00000044155952184312286900000011486329841434819234_);" d="M306.5,135.2c-0.3,7.9-5,15.2-13.6,20.1
			c-11.9,6.8-24,13.6-35.9,20.3c-1,0.6-2,1.2-2.9,1.9c-8.5,6.4-9.1,16.5-1.1,23.5c5.1,4.4,10.7,8.2,16.2,12.3
			c8.9,6.6,17.9,13.1,26.8,19.8c5,3.7,8.6,8.5,10.1,14.7c2.6,10.7-2.2,21.2-12.4,27.2c-5.8,3.4-11.7,6.7-17.5,10
			c-7.4,4.2-14.8,8.4-22.2,12.5c-1.6,0.9-3.5,1.4-5.3,1.8c-1.7,0.4-3-0.6-3.6-2.3c-0.4-1.1-0.8-2.2-0.8-3.4
			c-0.2-6.4-3.3-11.2-8.4-15c-12.9-9.5-25.7-19.1-38.5-28.6c-4.4-3.3-7.9-7.4-9.8-12.6c-4-10.9,0.3-22.8,11-29.3
			c9.7-5.8,19.6-11.2,29.4-16.7c3.4-1.9,6.7-3.9,10.1-5.8c9.5-5.6,9.1-19,0.8-25c-13.6-9.9-27.1-20.1-40.6-30.3
			c-2.6-2-5.1-4.4-7.1-7c-7.9-10.3-6.6-23.7,3.2-32.2c3.8-3.3,8.4-5.8,12.8-8.3c10.2-5.9,20.6-11.7,30.9-17.4
			c1.6-0.9,3.4-1.6,5.2-2.1c2-0.5,3.7,0.3,4.4,2.3c0.6,1.4,0.9,3,1,4.5c0.4,5.3,2.7,9.6,7,12.7c12.2,9.1,24.5,18.1,36.8,27
			c3.8,2.7,7.4,5.4,10,9.4C305.1,123.5,306.6,128,306.5,135.2z"/>
	</g>
</g>
</svg>
