<?xml version="1.0" encoding="utf-8"?>
<!-- Generator: Adobe Illustrator 28.2.0, SVG Export Plug-In . SVG Version: 6.00 Build 0)  -->
<svg version="1.1" id="Layer_1" xmlns="http://www.w3.org/2000/svg" xmlns:xlink="http://www.w3.org/1999/xlink" x="0px" y="0px"
	 viewBox="0 0 400 400" style="enable-background:new 0 0 400 400;" xml:space="preserve">
<style type="text/css">
	.st0{fill:#1A0C6D;}
	.st1{fill:#FFC200;}
	.st2{fill:#FCE49E;}
	.st3{fill:#FCB601;}
</style>
<g>
	<g>
		<g>
			<g>
				<g>
					<ellipse class="st0" cx="200" cy="200" rx="194.6" ry="194.6"/>
					<path class="st1" d="M200,9.2c25.8,0,50.7,5,74.3,15c22.7,9.6,43.1,23.4,60.6,40.9c17.5,17.5,31.3,37.9,40.9,60.6
						c10,23.5,15,48.5,15,74.3s-5,50.7-15,74.3c-9.6,22.7-23.4,43.1-40.9,60.6c-17.5,17.5-37.9,31.3-60.6,40.9
						c-23.5,10-48.5,15-74.3,15s-50.7-5-74.3-15c-22.7-9.6-43.1-23.4-60.6-40.9c-17.5-17.5-31.3-37.9-40.9-60.6
						c-9.9-23.5-15-48.5-15-74.3s5-50.7,15-74.3c9.6-22.7,23.4-43.1,40.9-60.6c17.5-17.5,37.9-31.3,60.6-40.9
						C149.3,14.3,174.2,9.2,200,9.2 M200,1.6C90.5,1.6,1.6,90.5,1.6,200S90.5,398.4,200,398.4S398.4,309.5,398.4,200
						S309.5,1.6,200,1.6L200,1.6z"/>
				</g>
			</g>
		</g>
	</g>
	<g>
		<path class="st2" d="M200,182.1c-2.7,0-5.4,0-8.4,0c0,9.6,0,18.8,0,28.3c-32.2,0-64.1,0-96.6,0c3.4-5.4,6.5-10.4,9.7-15.3
			c6.7-10.6,13.3-21.3,20-31.9c8.4-13.4,16.7-26.7,25.1-40.1c10.9-17.4,22-34.8,32.9-52.2c5.4-8.6,10.7-17.2,16-25.8
			c0.2-0.4,0.9-0.5,1.4-0.7C200,90.3,200,136.2,200,182.1z"/>
		<path class="st3" d="M200,239.1c4.6,0,9.3,0,14.2,0c0-9.6,0-18.9,0-28.3c30.3,0,60.3,0,90.9,0c-7.8,10.8-15.3,21-22.6,31.2
			c-11.8,16.4-23.5,32.9-35.3,49.3c-14.2,19.8-28.5,39.5-42.8,59.1c-1.3,1.8-2.9,3.4-4.4,5.1C200,316.8,200,278,200,239.1z"/>
		<path class="st3" d="M200,182.1c0-45.9,0-91.8,0-137.7c0.8,0.7,1.9,1.2,2.5,2.1c11.9,18.8,23.8,37.6,35.6,56.5
			c11.9,18.9,23.8,37.8,35.5,56.8c4.5,7.2,8.8,14.5,13.4,22.1c-0.9,0.1-1.6,0.4-2.4,0.4c-27.8,0-55.5,0-83.2,0
			C200.9,182.2,200.4,182.1,200,182.1z"/>
		<path class="st2" d="M200,239.1c0,38.8,0,77.7,0,116.5c-1.3-1.1-2.8-2.1-3.7-3.5c-10.9-15.1-21.7-30.2-32.5-45.3
			c-10.9-15.3-21.8-30.6-32.7-45.8c-4.4-6.1-8.9-12.1-13.3-18.1c-0.8-1-1.3-2.2-2.1-3.5c0.7-0.2,1.1-0.4,1.4-0.4
			C144.7,239.1,172.3,239.1,200,239.1z"/>
	</g>
</g>
</svg>
